# xmcd
# 
# Track frame offsets:
#     150
#     21325
#     45855
#     64438
#     87083
#     105353
#     123810
#     143933
#     161383
#     174278
#     193903
# 
# Disc length: 2811
# 
# Revision: 0
# Processed by: cddbd v1.5.2PL0 Copyright (c) Steve Scherf et al.
# Submitted via: BonkEnc v1.0.15
# 
DISCID=870af90b
DTITLE=ELO - Secret Messages
DYEAR=1983
DGENRE=Pop
TTITLE0=Secret Messages
TTITLE1=Loser Gone Wild
TTITLE2=Bluebird
TTITLE3=Take Me On and On
TTITLE4=Time After Time
TTITLE5=Four Little Diamonds
TTITLE6=Stranger
TTITLE7=Danger Ahead
TTITLE8=Letter from Spain
TTITLE9=Train of Gold
TTITLE10=Rock 'n' Roll Is King
EXTD=c 1983 April Music Inc.\nMusic and Lyrics by Jeff Lynne\nProduced by Jeff Lyne
EXTT0=
EXTT1=
EXTT2=
EXTT3=
EXTT4=
EXTT5=
EXTT6=
EXTT7=
EXTT8=
EXTT9=
EXTT10=
PLAYORDER=
